<?xml version="1.0" encoding="iso-8859-1"?>
<!-- Uploaded to: SVG Repo, www.svgrepo.com, Generator: SVG Repo Mixer Tools -->
<svg version="1.1" id="Layer_1" xmlns="http://www.w3.org/2000/svg" xmlns:xlink="http://www.w3.org/1999/xlink" 
	 viewBox="0 0 512 512" xml:space="preserve">
<path style="fill:#4A6F93;" d="M306.418,346.735H202.942c-37.476,0-67.857,30.38-67.857,67.857v89.186h239.189v-89.186
	C374.274,377.115,343.894,346.735,306.418,346.735z"/>
<path style="fill:#4EA018;" d="M468.219,356.754h-102.06c-12.263,0-22.204,9.941-22.204,22.204v124.264h146.468V378.958
	C490.423,366.695,480.482,356.754,468.219,356.754z"/>
<rect x="343.105" y="399.445" style="fill:#C0E7F9;" width="147.31" height="50.213"/>
<path style="fill:#4A6F93;" d="M394.728,227.394v-0.011c9.238-19.815,14.406-41.913,14.406-65.228
	c0-85.318-69.167-154.474-154.485-154.474c-85.307,0-154.474,69.156-154.474,154.474c0,23.315,5.168,45.413,14.406,65.228"/>
<g>
	<path style="fill:#E0B394;" d="M139.015,253.989c-13.605-0.603-24.435-11.828-24.435-25.576c0-14.132,11.455-25.598,25.598-25.598
		c1.273,0,2.524,0.088,3.752,0.274"/>
	<path style="fill:#E0B394;" d="M370.326,253.989c13.605-0.603,24.446-11.828,24.446-25.576c0-14.132-11.466-25.598-25.609-25.598
		c-1.273,0-2.535,0.099-3.752,0.274"/>
</g>
<path style="fill:#3D5F7A;" d="M244.751,346.735h-41.81c-37.476,0-67.857,30.38-67.857,67.857v88.632h41.81v-88.632
	C176.895,377.115,207.275,346.735,244.751,346.735z"/>
<path style="fill:#F7CBA4;" d="M217.645,364.636l-45.039-32.723c-23.8-17.292-36.676-45.887-33.846-75.17l7.812-80.839
	c5.381-55.677,52.168-98.162,108.105-98.162l0,0c55.936,0,102.724,42.485,108.105,98.162l7.812,80.839
	c2.83,29.283-10.045,57.877-33.846,75.17l-45.039,32.723C269.627,380.678,239.726,380.678,217.645,364.636z"/>
<path style="fill:#E0B394;" d="M166.788,272.674c-0.757,12.804,3.412,25.4,11.663,35.22l47.073,57.844
	c2.458,2.93,5.245,5.387,8.262,7.351c-5.662-1.975-11.104-4.806-16.14-8.459l-45.04-32.718
	c-23.798-17.292-36.668-45.885-33.838-75.169l7.801-80.841c5.332-55.134,51.261-97.332,106.483-98.133
	c-34.013,0.823-72.528,32.883-74.536,67.028L166.788,272.674z"/>
<path style="fill:#4D4D4D;" d="M313.296,136.624c-5.069,16.282-30.052,28.648-60.093,28.648c-29.679,0-54.421-12.069-59.896-28.055
	C232.521,128.483,273.984,128.285,313.296,136.624z"/>
<path style="fill:#3D5F7A;" d="M327.68,105.946c13.046,11.839,23.217,26.837,29.273,43.877
	c-14.088-5.64-28.714-10.039-43.657-13.199c-39.313-8.339-80.776-8.141-119.989,0.592c-14,3.116-27.704,7.318-40.925,12.596
	c15.086-42.33,55.485-72.075,102.292-72.075C282.64,77.737,308.315,88.358,327.68,105.946z"/>
<circle style="fill:#E6E6E6;" cx="71.101" cy="332.11" r="50.625"/>
<circle style="fill:#F95428;" cx="71.101" cy="332.11" r="22.318"/>
<path d="M272.501,299.528c-4.62,4.62-10.765,7.166-17.299,7.166c-6.535,0-12.679-2.546-17.301-7.166
	c-3.214-3.214-8.424-3.214-11.637,0c-3.214,3.214-3.214,8.424,0,11.637c7.73,7.73,18.006,11.987,28.937,11.987
	c10.931,0,21.209-4.257,28.939-11.987c3.214-3.214,3.214-8.424-0.001-11.637C280.927,296.313,275.716,296.314,272.501,299.528z"/>
<path d="M206.358,220.354c-4.545,0-8.229,3.684-8.229,8.229v13.162c0,4.545,3.684,8.229,8.229,8.229
	c4.545,0,8.229-3.684,8.229-8.229v-13.162C214.587,224.039,210.902,220.354,206.358,220.354z"/>
<path d="M279.414,190.946c-3.215,3.214-3.215,8.423-0.001,11.637c3.215,3.214,8.425,3.214,11.637,0
	c7.166-7.165,18.826-7.165,25.991,0c1.606,1.607,3.713,2.411,5.818,2.411s4.212-0.803,5.82-2.411
	c3.214-3.214,3.214-8.424-0.001-11.637C315.097,177.364,292.996,177.364,279.414,190.946z"/>
<path d="M230.991,202.583c3.214-3.214,3.214-8.424,0-11.637c-13.581-13.582-35.682-13.583-49.265,0
	c-3.214,3.214-3.214,8.424,0,11.637c3.214,3.214,8.424,3.214,11.637,0c3.472-3.472,8.086-5.383,12.995-5.383
	c4.909,0,9.524,1.911,12.995,5.383c1.606,1.606,3.713,2.411,5.818,2.411C227.277,204.994,229.384,204.19,230.991,202.583z"/>
<path d="M304.046,220.354c-4.546,0-8.229,3.684-8.229,8.229v13.162c0,4.545,3.683,8.229,8.229,8.229s8.229-3.684,8.229-8.229
	v-13.162C312.275,224.039,308.591,220.354,304.046,220.354z"/>
<path d="M160.636,352.137c-20.821,12.642-33.253,34.714-33.253,59.041v92.592c0,4.545,3.684,8.229,8.229,8.229h24.937
	c4.545,0,8.229-3.684,8.229-8.229s-3.684-8.229-8.229-8.229h-16.708v-84.363c0-18.528,9.471-35.341,25.336-44.973
	c3.885-2.359,5.122-7.42,2.764-11.305C169.582,351.016,164.521,349.778,160.636,352.137z"/>
<path d="M255.202,284.014c11.495,0,20.847-9.351,20.847-20.847v-38.95c0-4.545-3.683-8.229-8.229-8.229
	c-4.546,0-8.229,3.684-8.229,8.229v38.95c0,2.42-1.969,4.389-4.389,4.389c-2.419,0-4.389-1.968-4.389-4.389v-38.95
	c0-4.545-3.684-8.229-8.229-8.229s-8.229,3.684-8.229,8.229v38.95C234.355,274.662,243.708,284.014,255.202,284.014z"/>
<path d="M130.771,261.316c-1.301,30.367,12.788,59.831,37.524,77.802l45.039,32.723l0,0c12.521,9.097,27.194,13.646,41.868,13.646
	s29.347-4.549,41.868-13.646l45.04-32.723c24.737-17.972,38.825-47.437,37.523-77.805c13.686-4.172,23.563-16.723,23.876-31.624
	c9.548-21.107,14.402-43.63,14.402-66.984C417.912,72.988,344.918,0,255.197,0C165.483,0,92.494,72.988,92.494,162.703
	c0,23.353,4.853,45.874,14.401,66.979C107.205,244.589,117.085,257.147,130.771,261.316z M123.335,228.961
	c0-7.709,5.053-14.253,12.016-16.516l-3.064,31.718C126.932,241.201,123.335,235.505,123.335,228.961z M332.436,325.803
	l-45.04,32.723c-19.257,13.99-45.132,13.991-64.389,0l0,0l-45.039-32.724c-21.346-15.509-33.03-41.458-30.492-67.721l7.812-80.839
	c0.681-7.056,2.121-13.95,4.22-20.6c9.717-3.712,19.71-6.823,29.895-9.337c10.22,16.045,35.249,26.744,64.337,26.744
	c29.628,0,54.799-10.948,64.739-27.371c11.06,2.615,21.898,5.948,32.417,9.966c2.099,6.65,3.537,13.542,4.22,20.598l7.812,80.839
	C365.466,284.345,353.782,310.294,332.436,325.803z M168.69,136.014c5.086-8.643,11.464-16.558,19.033-23.431
	c18.511-16.809,42.475-26.065,67.479-26.065s48.968,9.257,67.479,26.065c7.57,6.874,13.948,14.789,19.033,23.432
	C286.334,118.588,224.078,118.588,168.69,136.014z M300.464,143.075c-9.726,9.222-29.281,14.515-46.723,14.515
	c-17.052,0-36.318-5.134-46.234-14.091C238.08,138.163,269.831,138.015,300.464,143.075z M378.116,244.16l-3.064-31.712
	c6.965,2.265,12.016,8.807,12.016,16.513C387.068,235.503,383.472,241.198,378.116,244.16z M255.197,16.458
	c80.645,0,146.255,65.605,146.255,146.245c0,14.999-2.224,29.612-6.618,43.651c-5.419-6.018-12.961-10.084-21.436-11.013
	l-1.903-19.682c-2.799-28.968-16.207-55.697-37.752-75.261c-21.546-19.564-49.44-30.339-78.542-30.339s-56.997,10.774-78.543,30.339
	s-34.953,46.292-37.752,75.261l-1.901,19.68c-8.475,0.926-16.017,4.992-21.435,11.01c-4.393-14.038-6.617-28.65-6.617-43.648
	C108.952,82.063,174.558,16.458,255.197,16.458z"/>
<path d="M315.267,370.427c-4.475-0.806-8.752,2.163-9.561,6.635l-7.654,42.376l-38.622-23.1c-0.031-0.019-0.064-0.03-0.094-0.048
	c-0.584-0.34-1.211-0.609-1.874-0.799c-0.074-0.021-0.148-0.038-0.222-0.057c-0.256-0.065-0.516-0.117-0.781-0.158
	c-0.084-0.013-0.168-0.029-0.252-0.038c-0.328-0.039-0.662-0.067-1.001-0.067l0,0h-0.001c-0.339,0-0.67,0.026-0.998,0.067
	c-0.086,0.011-0.171,0.026-0.257,0.04c-0.262,0.041-0.52,0.092-0.775,0.157c-0.076,0.02-0.153,0.037-0.228,0.058
	c-0.662,0.189-1.288,0.458-1.87,0.797c-0.031,0.019-0.065,0.031-0.095,0.048l-38.623,23.1l-7.654-42.376
	c-0.808-4.472-5.087-7.443-9.56-6.635c-4.472,0.808-7.443,5.088-6.635,9.56l9.767,54.081c0.481,2.659,2.234,4.912,4.693,6.029
	c1.085,0.493,2.246,0.737,3.405,0.737c1.467,0,2.928-0.392,4.224-1.166l36.379-21.757v77.633h-58.998
	c-4.545,0-8.229,3.684-8.229,8.229s3.684,8.229,8.229,8.229H311.39c4.546,0,8.229-3.684,8.229-8.229s-3.683-8.229-8.229-8.229
	h-47.956v-77.633l36.378,21.757c2.318,1.387,5.171,1.547,7.628,0.43c2.46-1.118,4.214-3.371,4.694-6.029l9.767-54.081
	C322.71,375.514,319.739,371.234,315.267,370.427z"/>
<path d="M255.203,60.978c4.545,0,8.229-3.684,8.229-8.229V37.938c0-4.545-3.683-8.229-8.229-8.229s-8.229,3.684-8.229,8.229v14.811
	C246.974,57.293,250.658,60.978,255.203,60.978z"/>
<path d="M468.768,349.074h-11.714v-19.188c0-4.545-3.683-8.229-8.229-8.229s-8.229,3.684-8.229,8.229v19.188h-45.717v-19.188
	c0-4.545-3.683-8.229-8.229-8.229c-4.546,0-8.229,3.684-8.229,8.229v19.188h-11.715c-16.781,0-30.432,13.652-30.432,30.433v124.264
	c0,4.545,3.683,8.229,8.229,8.229h146.468c4.546,0,8.229-3.684,8.229-8.229V379.507
	C499.202,362.726,485.548,349.074,468.768,349.074z M366.708,365.532h102.061c7.706,0,13.975,6.269,13.975,13.975v12.263h-17.174
	c-4.546,0-8.229,3.684-8.229,8.229s3.683,8.229,8.229,8.229h17.174v32.659h-56.777v-32.659h12.172c4.546,0,8.229-3.684,8.229-8.229
	s-3.683-8.229-8.229-8.229h-85.406v-12.263C352.733,371.801,359.002,365.532,366.708,365.532z M352.733,440.886v-32.659h56.776
	v32.659H352.733z M352.733,495.542v-38.198h130.01v38.198L352.733,495.542L352.733,495.542z"/>
<path d="M406.765,387.124h21.944c4.546,0,8.229-3.684,8.229-8.229s-3.683-8.229-8.229-8.229h-21.944
	c-4.546,0-8.229,3.684-8.229,8.229S402.221,387.124,406.765,387.124z"/>
<path d="M130.5,332.662c0-32.45-26.401-58.85-58.85-58.85s-58.85,26.401-58.85,58.85c0,29.656,22.055,54.246,50.621,58.262v71.356
	c0,4.545,3.684,8.229,8.229,8.229s8.229-3.684,8.229-8.229v-71.356C108.445,386.909,130.5,362.318,130.5,332.662z M71.65,375.055
	c-23.375,0-42.392-19.018-42.392-42.392S48.275,290.27,71.65,290.27s42.392,19.018,42.392,42.392S95.024,375.055,71.65,375.055z"/>
<path d="M93.968,324.433c-4.545,0-8.229,3.684-8.229,8.229c0,7.769-6.32,14.089-14.089,14.089s-14.089-6.32-14.089-14.089
	s6.32-14.089,14.089-14.089c1.906,0,3.75,0.371,5.482,1.103c4.185,1.771,9.015-0.187,10.784-4.372
	c1.771-4.185-0.187-9.013-4.372-10.784c-3.77-1.595-7.771-2.404-11.893-2.404c-16.844,0-30.547,13.703-30.547,30.547
	s13.703,30.547,30.547,30.547s30.547-13.703,30.547-30.547C102.197,328.118,98.512,324.433,93.968,324.433z"/>
<circle cx="466.375" cy="476.907" r="8.229"/>
<circle cx="369.086" cy="476.907" r="8.229"/>
<circle cx="282.386" cy="478.981" r="8.229"/>
<circle cx="282.386" cy="450.454" r="8.229"/>
<circle cx="228.02" cy="478.981" r="8.229"/>
<circle cx="228.02" cy="450.454" r="8.229"/>
</svg>