<?xml version="1.0" encoding="iso-8859-1"?>
<!-- Uploaded to: SVG Repo, www.svgrepo.com, Generator: SVG Repo Mixer Tools -->
<svg fill="#000000" height="800px" width="800px" version="1.1" id="Layer_1" xmlns="http://www.w3.org/2000/svg" xmlns:xlink="http://www.w3.org/1999/xlink" 
	 viewBox="0 0 501.481 501.481" xml:space="preserve">
<g>
	<g>
		<path d="M498.281,468.34L270.014,11.807c-4.267-7.467-10.667-11.733-19.2-11.733s-16,4.267-19.2,11.733L2.281,471.541
			c-3.2,6.4-3.2,13.867,1.067,20.267c4.267,5.333,10.667,9.6,18.133,9.6h458.667c11.733,0,21.333-9.6,21.333-21.333
			C501.48,475.807,500.414,471.541,498.281,468.34z M54.547,459.807L250.814,67.274l195.2,392.533H54.547z"/>
	</g>
</g>
<g>
	<g>
		<path d="M250.814,182.474c-11.733,0-21.333,9.6-21.333,21.333v110.933c0,11.733,9.6,21.333,21.333,21.333
			s20.267-9.6,21.333-21.333V203.807C272.147,192.074,262.547,182.474,250.814,182.474z"/>
	</g>
</g>
<g>
	<g>
		<path d="M250.814,369.141c-11.733,0-21.333,9.6-21.333,21.333v7.467c0,11.733,9.6,21.333,21.333,21.333s20.267-9.6,21.333-21.333
			v-7.467C272.147,378.741,262.547,369.141,250.814,369.141z"/>
	</g>
</g>
</svg>